<svg width="30" height="30" viewBox="0 0 30 30" fill="none" xmlns="http://www.w3.org/2000/svg">
<path fill-rule="evenodd" clip-rule="evenodd" d="M28.125 15C28.125 11.519 26.7422 8.18064 24.2808 5.71922C21.8194 3.25781 18.481 1.875 15 1.875C11.519 1.875 8.18064 3.25781 5.71922 5.71922C3.25781 8.18064 1.875 11.519 1.875 15C1.875 18.481 3.25781 21.8194 5.71922 24.2808C8.18064 26.7422 11.519 28.125 15 28.125C18.481 28.125 21.8194 26.7422 24.2808 24.2808C26.7422 21.8194 28.125 18.481 28.125 15ZM0 15C0 11.0218 1.58035 7.20644 4.3934 4.3934C7.20644 1.58035 11.0218 0 15 0C18.9782 0 22.7936 1.58035 25.6066 4.3934C28.4196 7.20644 30 11.0218 30 15C30 18.9782 28.4196 22.7936 25.6066 25.6066C22.7936 28.4196 18.9782 30 15 30C11.0218 30 7.20644 28.4196 4.3934 25.6066C1.58035 22.7936 0 18.9782 0 15ZM8.4375 15.9375C8.18886 15.9375 7.9504 15.8387 7.77459 15.6629C7.59877 15.4871 7.5 15.2486 7.5 15C7.5 14.7514 7.59877 14.5129 7.77459 14.3371C7.9504 14.1613 8.18886 14.0625 8.4375 14.0625H19.2994L15.2738 10.0387C15.1866 9.95159 15.1174 9.84811 15.0703 9.73422C15.0231 9.62033 14.9988 9.49827 14.9988 9.375C14.9988 9.25173 15.0231 9.12967 15.0703 9.01578C15.1174 8.90189 15.1866 8.79841 15.2738 8.71125C15.3609 8.62408 15.4644 8.55494 15.5783 8.50777C15.6922 8.4606 15.8142 8.43632 15.9375 8.43632C16.0608 8.43632 16.1828 8.4606 16.2967 8.50777C16.4106 8.55494 16.5141 8.62408 16.6012 8.71125L22.2263 14.3363C22.3136 14.4233 22.3828 14.5268 22.4301 14.6407C22.4773 14.7546 22.5017 14.8767 22.5017 15C22.5017 15.1233 22.4773 15.2454 22.4301 15.3593C22.3828 15.4732 22.3136 15.5767 22.2263 15.6637L16.6012 21.2887C16.4252 21.4648 16.1865 21.5637 15.9375 21.5637C15.6885 21.5637 15.4498 21.4648 15.2738 21.2887C15.0977 21.1127 14.9988 20.874 14.9988 20.625C14.9988 20.376 15.0977 20.1373 15.2738 19.9613L19.2994 15.9375H8.4375Z" fill="white"/>
</svg>
