<svg width="60" height="60" viewBox="0 0 60 60" fill="none" xmlns="http://www.w3.org/2000/svg">
<path d="M30 0C13.4316 0 0 13.4318 0 30C0 46.5694 13.4318 60 30 60C46.5696 60 60 46.5694 60 30C60 13.433 46.5696 0.00164063 29.9995 0.00164063L29.9998 0.000234375L30 0ZM43.7576 43.2689C43.2202 44.1502 42.0666 44.4295 41.1853 43.8886C34.1416 39.5862 25.2748 38.6116 14.8322 40.9976C14.3486 41.1076 13.8412 41.0211 13.4213 40.7571C13.0015 40.4931 12.7037 40.0732 12.5934 39.5897C12.5385 39.3503 12.5313 39.1025 12.5722 38.8603C12.6132 38.6182 12.7015 38.3865 12.8321 38.1785C12.9627 37.9705 13.1331 37.7904 13.3335 37.6483C13.5338 37.5063 13.7602 37.4051 13.9997 37.3507C25.4278 34.7398 35.2301 35.8638 43.1379 40.6966C44.0191 41.2376 44.2985 42.3877 43.7576 43.2689ZM47.4295 35.1002C46.7522 36.2006 45.3122 36.5482 44.2125 35.8711C36.1486 30.9145 23.8563 29.479 14.3184 32.3742C13.0814 32.7478 11.775 32.0508 11.3995 30.8159C11.0269 29.5788 11.7244 28.2748 12.9593 27.8988C23.8542 24.5927 37.3988 26.1942 46.6594 31.8848C47.7591 32.5622 48.1066 34.0022 47.4295 35.1005V35.1002ZM47.7448 26.5941C38.0759 20.8509 22.1236 20.3227 12.8923 23.1248C11.4098 23.5744 9.84211 22.7374 9.39305 21.255C8.94375 19.7719 9.77977 18.2053 11.2634 17.7546C21.8602 14.5376 39.4767 15.1594 50.6084 21.7678C51.9448 22.5591 52.3816 24.2812 51.5899 25.6127C50.802 26.9463 49.0751 27.3858 47.7462 26.5941H47.7448Z" fill="#1ED760"/>
</svg>
